<?xml version="1.0" encoding="UTF-8"?>
<svg id="Layer_1" xmlns="http://www.w3.org/2000/svg" version="1.1" viewBox="0 0 371.46 79.48">
  <!-- Generator: Adobe Illustrator 29.5.0, SVG Export Plug-In . SVG Version: 2.1.0 Build 137)  -->
  <defs>
    <style>
      .st0 {
        fill: none;
        stroke-linecap: round;
        stroke-width: 1.2px;
      }

      .st0, .st1 {
        stroke: #2e4085;
      }

      .st0, .st1, .st2 {
        stroke-miterlimit: 10;
      }

      .st1, .st2 {
        stroke-width: .41px;
      }

      .st1, .st3 {
        fill: #e8df71;
      }

      .st4, .st2 {
        fill: #2e4085;
      }

      .st2 {
        stroke: #e8df71;
      }
    </style>
  </defs>
  <path class="st3" d="M15.99,59.41c-.71-5.68-1.74-12.48.56-17.93,2.51-5.94,9.61-6.79,15.31-6.55,14.9.62,19.83,12.72,28.84,22.15,9.09,9.51,21.66,10.7,33.24,5,12.59-6.19,19.5-18.51,28.15-28.89,18.88-22.69,49.64-23.07,72.96-6.88,11.81,8.2,18.66,20.63,29.26,29.97,10.2,8.98,23.94,13.01,37.43,11.73,16.22-1.55,30.01-9.63,42.44-19.68,5.04-4.08,11.9-10.23,18.95-7.95,6.49,2.09,10.2,9.75,10.84,16.1.72,7.06,11.85,7.13,11.13,0-1.28-12.64-9.22-26.26-23.06-27.59-15.22-1.46-26.2,13.41-38.18,20.31-13.2,7.6-29.84,11.13-44.1,4.19s-21.16-22.43-32.91-32.02c-22.46-18.32-55.38-25.05-80.42-7.43-12.7,8.94-18.95,23.35-30.4,33.42-4.93,4.33-12.03,8.33-18.84,7.07-6.53-1.21-10.56-7.32-14.28-12.26-4.58-6.07-9.36-11.66-16.42-14.89s-15.14-4.19-22.93-2.89C5.63,27.39,2.95,44.06,4.88,59.41c.88,7.01,12.02,7.1,11.13,0h-.02Z"/>
  <path class="st4" d="M41.27,48.58h15.49c.16,4.25,2.67,7.86,7.79,7.86,4.4,0,7.16-2.67,7.16-6.37,0-4.33-3.62-6.05-10.54-8.49-11.25-3.93-17.62-8.89-17.62-19.5S52.59,3.59,64.31,3.59c12.58,0,20.84,8.18,20.92,20.53l-14.47-.08c-.16-3.78-2.2-6.77-6.45-6.77-3.54,0-5.82,2.2-5.82,5.03,0,4.01,4.01,5.35,8.81,7,11.01,3.7,20.37,7,20.37,21,0,12.82-9.99,20.37-23.04,20.37-13.92,0-23.28-8.97-23.36-22.1h0Z"/>
  <path class="st4" d="M100.65,19.8h-12.97V4.78h41.84v15.02h-13.06v49.86h-15.81V19.8Z"/>
  <path class="st4" d="M163.2,69.66l-5.43-13.13c-1.5.24-3.14.31-4.88.31h-2.67v12.9h-15.81V4.86h16.2c21.39,0,29.34,12.5,29.34,25.95,0,7.63-2.6,14.94-8.26,19.82l9.83,19.03h-18.33.01ZM153.37,41.43c7.31,0,11.09-4.56,11.09-10.62s-3.86-10.54-11.09-10.54h-3.15v21.16h3.15Z"/>
  <path class="st4" d="M187.22,5.01h15.89v64.65h-15.89V5.01Z"/>
  <path class="st2" d="M213.19,4.78h15.18c24.77,0,35.31,14.63,35.31,32.25s-10.54,32.64-35.31,32.64h-15.18V4.78ZM230.33,53.7c12.19,0,17.46-7.55,17.46-16.67s-5.27-16.36-17.46-16.36h-1.34v33.03h1.34Z"/>
  <path class="st4" d="M266.59,37.18c0-17.93,14.16-33.59,33.66-33.59s36.26,18.17,33.19,38.23h-51.28c1.18,8.18,8.49,14.55,18.01,14.55,6.53,0,12.19-3.46,15.02-8.57h17.07c-4.09,13.29-16.52,23.04-32.01,23.04-19.51,0-33.66-15.65-33.66-33.66ZM317,30.02c-2.04-6.84-8.73-11.72-16.91-11.72s-14.79,4.95-16.99,11.72h33.9Z"/>
  <g>
    <path class="st1" d="M326.74,61.79c-1.39-.81-1.91-2.62-1.23-4.18l4.86-11.24s.87-3.7,6.45,3.09c.62.75,1.42,1.27,2.29,1.5,1.56.41,4.13.53,7.09-1.48,1.44-.98,3.33-.18,3.75,1.51,1.23,4.9,4.87,8.58,14.07,12.11,2.7,1.04,3.46.85,4.48,2.92,1.52,3.09-.81,12.15-9.77,8.62-.34-.13-2.34-.82-2.69-.94-3.52-1.21-22.37-7.9-29.3-11.92h0Z"/>
    <line class="st0" x1="351.66" y1="52.4" x2="347.23" y2="53.78"/>
    <line class="st0" x1="353.24" y1="55.04" x2="348.81" y2="56.42"/>
    <line class="st0" x1="355.12" y1="57.63" x2="350.68" y2="59.01"/>
  </g>
  <g>
    <path class="st1" d="M11.56,68.44c-1.52.51-3.23-.31-3.95-1.84l-5.2-11.09s-2.2-3.11,6.59-2.79c.97.04,1.89-.22,2.64-.72,1.34-.9,3.13-2.74,3.59-6.29.22-1.73,2.07-2.61,3.62-1.81,4.49,2.33,9.66,2.03,18.39-2.52,2.56-1.34,2.93-2.02,5.16-1.42,3.32.9,8.56,8.65,0,13.03-.33.17-2.17,1.21-2.49,1.39-3.24,1.83-20.73,11.53-28.34,14.06Z"/>
    <line class="st0" x1="21.04" y1="43.55" x2="19.13" y2="47.79"/>
    <line class="st0" x1="24.06" y1="44.11" x2="22.16" y2="48.35"/>
    <line class="st0" x1="27.24" y1="44.42" x2="25.34" y2="48.66"/>
  </g>
</svg>