<?xml version="1.0" encoding="UTF-8"?>
<svg id="Layer_1" data-name="Layer 1" xmlns="http://www.w3.org/2000/svg" viewBox="0 0 367.18 72.06">
  <defs>
    <style>
      .cls-1 {
        fill: none;
        stroke-linecap: round;
        stroke-width: 1.2px;
      }

      .cls-1, .cls-2 {
        stroke: #2e4085;
        stroke-miterlimit: 10;
      }

      .cls-2 {
        stroke-width: .41px;
      }

      .cls-2, .cls-3 {
        fill: #e8df71;
      }

      .cls-4 {
        fill: #2e4085;
      }
    </style>
  </defs>
  <path class="cls-3" d="M14.03,55.82c-.71-5.68-1.74-12.48.56-17.93,2.51-5.94,9.61-6.79,15.31-6.55,14.9.62,19.83,12.72,28.84,22.15,9.09,9.51,21.66,10.7,33.24,5,12.59-6.19,19.5-18.51,28.15-28.89,18.88-22.69,49.64-23.07,72.96-6.88,11.81,8.2,18.66,20.63,29.26,29.97,10.2,8.98,23.94,13.01,37.43,11.73,16.22-1.55,30.01-9.63,42.44-19.68,5.04-4.08,11.9-10.23,18.95-7.95,6.49,2.09,10.2,9.75,10.84,16.1.72,7.06,11.85,7.13,11.13,0-1.28-12.64-9.22-26.26-23.06-27.59-15.22-1.46-26.2,13.41-38.18,20.31-13.2,7.6-29.84,11.13-44.1,4.19s-21.16-22.43-32.91-32.02C182.43-.54,149.51-7.27,124.47,10.35c-12.7,8.94-18.95,23.35-30.4,33.42-4.93,4.33-12.03,8.33-18.84,7.07-6.53-1.21-10.56-7.32-14.28-12.26-4.58-6.07-9.36-11.66-16.42-14.89s-15.14-4.19-22.93-2.89C3.67,23.8.99,40.47,2.92,55.82c.88,7.01,12.02,7.1,11.13,0h-.02Z"/>
  <path class="cls-4" d="M39.31,44.99h15.49c.16,4.25,2.67,7.86,7.79,7.86,4.4,0,7.16-2.67,7.16-6.37,0-4.33-3.62-6.05-10.54-8.49-11.25-3.93-17.62-8.89-17.62-19.5S50.63,0,62.35,0c12.58,0,20.84,8.18,20.92,20.53l-14.47-.08c-.16-3.78-2.2-6.77-6.45-6.77-3.54,0-5.82,2.2-5.82,5.03,0,4.01,4.01,5.35,8.81,7,11.01,3.7,20.37,7,20.37,21,0,12.82-9.99,20.37-23.04,20.37-13.92,0-23.28-8.97-23.36-22.1h0Z"/>
  <path class="cls-4" d="M98.69,16.21h-12.97V1.19h41.84v15.02h-13.06v49.86h-15.81s0-49.86,0-49.86Z"/>
  <path class="cls-4" d="M161.24,66.07l-5.43-13.13c-1.5.24-3.14.31-4.88.31h-2.67v12.9h-15.81V1.27h16.2c21.39,0,29.34,12.5,29.34,25.95,0,7.63-2.6,14.94-8.26,19.82l9.83,19.03h-18.33,0ZM151.41,37.84c7.31,0,11.09-4.56,11.09-10.62s-3.86-10.54-11.09-10.54h-3.15v21.16h3.15Z"/>
  <path class="cls-4" d="M185.26,1.42h15.89v64.65h-15.89V1.42Z"/>
  <path class="cls-4" d="M211.23,1.19h15.18c24.77,0,35.31,14.63,35.31,32.25s-10.54,32.64-35.31,32.64h-15.18V1.19ZM228.37,50.11c12.19,0,17.46-7.55,17.46-16.67s-5.27-16.36-17.46-16.36h-1.34v33.03h1.34,0Z"/>
  <path class="cls-4" d="M264.63,33.59C264.63,15.66,278.79,0,298.29,0s36.26,18.17,33.19,38.23h-51.28c1.18,8.18,8.49,14.55,18.01,14.55,6.53,0,12.19-3.46,15.02-8.57h17.07c-4.09,13.29-16.52,23.04-32.01,23.04-19.51,0-33.66-15.65-33.66-33.66ZM315.04,26.43c-2.04-6.84-8.73-11.72-16.91-11.72s-14.79,4.95-16.99,11.72h33.9Z"/>
  <g>
    <path class="cls-2" d="M324.78,58.2c-1.39-.81-1.91-2.62-1.23-4.18l4.86-11.24s.87-3.7,6.45,3.09c.62.75,1.42,1.27,2.29,1.5,1.56.41,4.13.53,7.09-1.48,1.44-.98,3.33-.18,3.75,1.51,1.23,4.9,4.87,8.58,14.07,12.11,2.7,1.04,3.46.85,4.48,2.92,1.52,3.09-.81,12.15-9.77,8.62-.34-.13-2.34-.82-2.69-.94-3.52-1.21-22.37-7.9-29.3-11.92h0Z"/>
    <line class="cls-1" x1="349.7" y1="48.81" x2="345.27" y2="50.19"/>
    <line class="cls-1" x1="351.28" y1="51.45" x2="346.85" y2="52.83"/>
    <line class="cls-1" x1="353.16" y1="54.04" x2="348.72" y2="55.42"/>
  </g>
  <g>
    <path class="cls-2" d="M9.6,64.85c-1.52.51-3.23-.31-3.95-1.84L.45,51.92s-2.2-3.11,6.59-2.79c.97.04,1.89-.22,2.64-.72,1.34-.9,3.13-2.74,3.59-6.29.22-1.73,2.07-2.61,3.62-1.81,4.49,2.33,9.66,2.03,18.39-2.52,2.56-1.34,2.93-2.02,5.16-1.42,3.32.9,8.56,8.65,0,13.03-.33.17-2.17,1.21-2.49,1.39-3.24,1.83-20.73,11.53-28.34,14.06h0Z"/>
    <line class="cls-1" x1="19.08" y1="39.96" x2="17.17" y2="44.2"/>
    <line class="cls-1" x1="22.1" y1="40.52" x2="20.2" y2="44.76"/>
    <line class="cls-1" x1="25.28" y1="40.83" x2="23.38" y2="45.07"/>
  </g>
</svg>